<svg width="56" height="56" viewBox="0 0 56 56" fill="none" xmlns="http://www.w3.org/2000/svg">
<path d="M28 0C22.4621 0 17.0486 1.64217 12.444 4.71885C7.83947 7.79553 4.25064 12.1685 2.13139 17.2849C0.0121319 22.4012 -0.542361 28.0311 0.538025 33.4625C1.61841 38.894 4.28515 43.8831 8.20102 47.799C12.1169 51.7149 17.106 54.3816 22.5375 55.462C27.9689 56.5424 33.5988 55.9879 38.7151 53.8686C43.8315 51.7494 48.2045 48.1605 51.2812 43.556C54.3578 38.9514 56 33.5379 56 28C56 20.5739 53.05 13.452 47.799 8.20101C42.548 2.94999 35.4261 0 28 0ZM46.2875 18.6025L23.2925 41.58L9.71251 28C9.24838 27.5359 8.98764 26.9064 8.98764 26.25C8.98764 25.5936 9.24838 24.9641 9.71251 24.5C10.1766 24.0359 10.8061 23.7751 11.4625 23.7751C12.1189 23.7751 12.7484 24.0359 13.2125 24.5L23.3275 34.615L42.8225 15.1375C43.2866 14.6734 43.9161 14.4126 44.5725 14.4126C45.2289 14.4126 45.8584 14.6734 46.3225 15.1375C46.7866 15.6016 47.0474 16.2311 47.0474 16.8875C47.0474 17.5439 46.7866 18.1734 46.3225 18.6375L46.2875 18.6025Z" fill="#41F774"/>
</svg>
