<svg width="12" height="12" viewBox="0 0 12 12" fill="none" xmlns="http://www.w3.org/2000/svg">
<path fill-rule="evenodd" clip-rule="evenodd" d="M3.875 3.75C3.875 2.57639 4.8264 1.625 6 1.625C7.17361 1.625 8.125 2.57639 8.125 3.75C8.125 4.9236 7.17361 5.875 6 5.875C4.8264 5.875 3.875 4.9236 3.875 3.75ZM6 2.375C5.24061 2.375 4.625 2.99061 4.625 3.75C4.625 4.50939 5.24061 5.125 6 5.125C6.75939 5.125 7.375 4.50939 7.375 3.75C7.375 2.99061 6.75939 2.375 6 2.375Z" fill="white"/>
<path fill-rule="evenodd" clip-rule="evenodd" d="M4 7.375C3.37868 7.375 2.875 7.87868 2.875 8.5V9.09414C2.875 9.10319 2.88156 9.1109 2.89048 9.11236C4.94986 9.44858 7.05014 9.44858 9.10952 9.11236C9.11844 9.1109 9.125 9.10319 9.125 9.09414V8.5C9.125 7.87868 8.62132 7.375 8 7.375H7.82957C7.81639 7.375 7.80329 7.37708 7.79077 7.38117L7.35801 7.52248C6.4756 7.81062 5.52441 7.81062 4.64199 7.52248L4.20923 7.38117C4.19671 7.37708 4.18361 7.375 4.17043 7.375H4ZM2.125 8.5C2.125 7.46447 2.96447 6.625 4 6.625H4.17043C4.26268 6.625 4.35435 6.63959 4.44204 6.66822L4.87479 6.80953C5.60594 7.04827 6.39406 7.04827 7.12521 6.80953L7.55796 6.66822C7.64565 6.63959 7.73732 6.625 7.82957 6.625H8C9.03553 6.625 9.875 7.46447 9.875 8.5V9.09414C9.875 9.47076 9.60206 9.79187 9.23037 9.85256C7.09095 10.2019 4.90905 10.2019 2.76964 9.85256C2.39794 9.79187 2.125 9.47076 2.125 9.09414V8.5Z" fill="white"/>
</svg>
