<svg width="106" height="59" viewBox="0 0 106 59" fill="none" xmlns="http://www.w3.org/2000/svg">
<rect x="91.6887" y="36.236" width="12" height="2.85714" rx="1" transform="rotate(-24.9533 91.6887 36.236)" fill="#2900B9"/>
<rect x="98.9674" y="41.0426" width="12" height="2.85714" rx="1" transform="rotate(-114.953 98.9674 41.0426)" fill="#2900B9"/>
<rect x="55.85" y="48.4893" width="16.2197" height="3.86183" rx="1" transform="rotate(-1.10045 55.85 48.4893)" fill="#2900B9"/>
<rect x="62.2206" y="58.4095" width="16.2197" height="3.86183" rx="1" transform="rotate(-91.1004 62.2206 58.4095)" fill="#2900B9"/>
<rect x="24.7313" y="35.1273" width="10.3251" height="2.45835" rx="1" transform="rotate(-34.2448 24.7313 35.1273)" fill="#2900B9"/>
<rect x="1.43359" y="44.762" width="8.62212" height="2.05289" rx="1" transform="rotate(44.2914 1.43359 44.762)" fill="#2900B9"/>
<rect x="3.1134" y="1.80786" width="16.2197" height="3.86183" rx="1" transform="rotate(26.4218 3.1134 1.80786)" fill="#2900B9"/>
<rect x="6.26184" y="8.95544" width="4" height="4" rx="1" transform="rotate(26.4218 6.26184 8.95544)" fill="#2900B9"/>
<rect x="10.7115" width="4" height="4" rx="1" transform="rotate(26.4218 10.7115 0)" fill="#2900B9"/>
</svg>
